<?xml version="1.0" encoding="utf-8"?>
<!-- Generator: Adobe Illustrator 24.2.1, SVG Export Plug-In . SVG Version: 6.00 Build 0)  -->
<svg version="1.1" id="Layer_1" xmlns="http://www.w3.org/2000/svg" xmlns:xlink="http://www.w3.org/1999/xlink" x="0px" y="0px"
	 viewBox="0 0 792 612" style="enable-background:new 0 0 792 612;" xml:space="preserve">
<style type="text/css">
	.st0{fill:#56CEFC;}
	.st1{fill:#FFBB43;}
	.st2{fill:#FFAA00;}
	.st3{fill:#FF4200;}
	.st4{font-family:'Impact';}
	.st5{font-size:528.2803px;}
	.st6{letter-spacing:41;}
	.st7{fill:#AF7314;}
</style>
<rect class="st0" width="792" height="612"/>
<g>
	<rect x="148.85" y="68.77" class="st1" width="471.95" height="455.52"/>
	<path class="st1" d="M620.79,520.26c0,23.63-93.66,37.54-235.97,37.54s-235.97-13.91-235.97-37.54s98.05-27.77,240.37-27.77
		S620.79,496.63,620.79,520.26z"/>
	<path class="st2" d="M620.79,68.5c0,19.39-93.66,23.76-235.97,23.76S148.85,88.49,148.85,68.5c0-27.36,93.66-32.15,235.97-32.15
		S620.79,41.14,620.79,68.5z"/>
	<text transform="matrix(1 0 0 1 239.2612 524.2854)" class="st3 st4 st5 st6">B</text>
	<path class="st1" d="M148.85,413.56h-22.51c-21.55,0-39.02-17.47-39.02-39.02V208.35c0-21.55,17.47-39.02,39.02-39.02l22.51-0.47
		c0,0,0,25.17,0,46.72l-29.73,0.67l0.15,28.43v99.58l0.22,25.08l29.36,0.32C148.85,391.21,148.85,413.56,148.85,413.56z"/>
	<path class="st7" d="M591.09,63.57c0,13.99-80.22,17.84-202.11,17.84S186.87,78,186.87,63.57c0-19.74,76.06-18.1,197.95-18.1
		S591.09,43.83,591.09,63.57z"/>
</g>
</svg>
